# xmcd CD database file
#
# Track frame offsets:
#	150
#	21401
#	39412
#	57700
#	77303
#	98250
#	115243
#	136288
#	152085
#	171210
#	190615
#
# Disc length: 2638 seconds
#
# Revision: 0
# Processed by: cddbd v1.5PL3 Copyright (c) Steve Scherf et al.
# Submitted via: CDex 1.50
#
DISCID=810a4c0b
DTITLE=Lloyd Langton Group - Like an arrow
DYEAR=1900
DGENRE=Blues
TTITLE0=Strange times
TTITLE1=I could cry
TTITLE2=Like an arrow
TTITLE3=So long waiting
TTITLE4=On the move
TTITLE5=No man's land
TTITLE6=Voices that fade
TTITLE7=Wars are the hobby there
TTITLE8=Take a back step
TTITLE9=In their eyes
TTITLE10=Can you feel
EXTD=
EXTT0=
EXTT1=
EXTT2=
EXTT3=
EXTT4=
EXTT5=
EXTT6=
EXTT7=
EXTT8=
EXTT9=
EXTT10=
PLAYORDER=
